<?xml version="1.0"?>
<svg xmlns="http://www.w3.org/2000/svg" version="1" viewBox="0 0 26 26" enable-background="new 0 0 26 26">
    <path style="text-indent:0;text-align:start;line-height:normal;text-transform:none;block-progression:tb;-inkscape-font-specification:Bitstream Vera Sans" d="M 9 0 C 4.0545455 0 0 4.0545455 0 9 C 0 13.615663 3.5396166 17.47718 8.03125 17.96875 C 8.5213345 22.469626 12.371959 26 17 26 C 21.958718 26 26 21.958718 26 17 C 26 12.371959 22.469626 8.5213345 17.96875 8.03125 C 17.47718 3.5396166 13.615663 0 9 0 z M 22 0 L 18 3 L 22 6 L 22 4 L 22.40625 4 C 23.234821 4 24 4.7651786 24 5.59375 L 24 8 L 26 8 L 26 5.59375 C 26 3.6223214 24.377679 2 22.40625 2 L 22 2 L 22 0 z M 9 2 C 12.537509 2 15.477758 4.6471687 15.9375 8.0625 C 13.462637 8.3589573 11.284711 9.6715838 9.84375 11.5625 C 9.69375 11.589062 9.55625 11.59375 9.40625 11.59375 C 8.50625 11.59375 7.9875 11.0125 7.6875 9.8125 L 9.6875 9.8125 L 10.09375 9 L 7.6875 9 L 7.6875 8.5 L 10.1875 8.5 L 10.59375 7.6875 L 7.8125 7.6875 C 8.1125 6.5875 8.60625 6.09375 9.40625 6.09375 C 9.80625 6.09375 10.30625 6.29375 10.90625 6.59375 L 11.59375 5.1875 C 10.79375 4.7875 10.1 4.59375 9.5 4.59375 C 8.6 4.59375 7.7875 4.9 7.1875 5.5 C 6.6875 6 6.2875 6.7875 6.1875 7.6875 L 5.59375 7.6875 L 5.1875 8.5 L 6 8.5 L 6 8.6875 L 6 9 L 5.5 9 L 5.1875 9.8125 L 6.09375 9.8125 C 6.19375 10.8125 6.59375 11.49375 7.09375 12.09375 C 7.602568 12.602568 8.194128 12.891425 8.96875 12.96875 C 8.5097075 13.878842 8.1886246 14.884596 8.0625 15.9375 C 4.6471687 15.477758 2 12.537509 2 9 C 2 5.1454545 5.1454545 2 9 2 z M 17 10 C 20.877838 10 24 13.122162 24 17 C 24 20.877838 20.877838 24 17 24 C 13.122162 24 10 20.877838 10 17 C 10 13.122162 13.122162 10 17 10 z M 16.6875 12.1875 L 16.6875 13.09375 C 16.2875 13.09375 15.9875 13.2125 15.6875 13.3125 C 15.3875 13.4125 15.10625 13.6125 14.90625 13.8125 C 14.60625 14.0125 14.4125 14.2 14.3125 14.5 C 14.2125 14.8 14.09375 15.1 14.09375 15.5 C 14.09375 15.8 14.2125 16.10625 14.3125 16.40625 C 14.4125 16.60625 14.6125 16.8 14.8125 17 C 15.0125 17.2 15.2 17.30625 15.5 17.40625 C 15.7 17.50625 16.0125 17.5875 16.3125 17.6875 C 16.4125 17.7875 16.4 17.8125 16.5 17.8125 C 16.6 17.9125 16.6875 17.90625 16.6875 17.90625 L 16.6875 20.3125 C 16.2875 20.2125 16.0125 20.0125 15.8125 19.8125 C 15.6125 19.5125 15.39375 19.19375 15.59375 18.59375 L 14 18.59375 C 14.1 19.49375 14.3125 20.09375 14.8125 20.59375 C 15.3125 21.09375 16.0125 21.30625 16.8125 21.40625 L 16.8125 22.40625 L 17.5 22.40625 L 17.5 21.40625 C 18.1 21.40625 18.50625 21.29375 18.90625 21.09375 C 19.30625 20.99375 19.6125 20.7 19.8125 20.5 C 20.0125 20.3 20.0875 20.1125 20.1875 19.8125 C 20.2875 19.6125 20.3125 19.3875 20.3125 19.1875 L 20.3125 18.59375 C 20.2125 18.39375 20.1 18.10625 20 17.90625 C 19.8 17.70625 19.6125 17.3875 19.3125 17.1875 C 19.0125 16.8875 18.6 16.79375 18 16.59375 C 17.9 16.49375 17.7875 16.5 17.6875 16.5 C 17.5875 16.4 17.50625 16.40625 17.40625 16.40625 L 17.40625 14.40625 C 17.70625 14.40625 17.89375 14.4875 18.09375 14.6875 C 18.29375 14.8875 18.40625 15.2 18.40625 15.5 L 20 15.5 C 20 15.1 19.9125 14.8 19.8125 14.5 C 19.6125 14.2 19.3875 14.0125 19.1875 13.8125 C 18.9875 13.6125 18.70625 13.4125 18.40625 13.3125 C 18.10625 13.2125 17.70625 13.09375 17.40625 13.09375 L 17.40625 12.1875 L 16.6875 12.1875 z M 16.3125 14.5 L 16.6875 14.5 L 16.6875 16.3125 C 16.2875 16.2125 16.10625 16.1 15.90625 16 C 15.80625 15.8 15.6875 15.60625 15.6875 15.40625 C 15.6875 15.30625 15.7125 15.1 15.8125 15 C 15.8125 14.9 15.9 14.7875 16 14.6875 C 16.1 14.5875 16.2125 14.5 16.3125 14.5 z M 0 18 L 0 20.40625 C 0 22.377679 1.6223214 24 3.59375 24 L 4 24 L 4 26 L 8 23 L 4 20 L 4 22 L 3.59375 22 C 2.7651786 22 2 21.234821 2 20.40625 L 2 18 L 0 18 z M 17.3125 18.09375 C 17.7125 18.19375 17.9875 18.4 18.1875 18.5 C 18.3875 18.7 18.5 18.8875 18.5 19.1875 C 18.5 19.3875 18.50625 19.5875 18.40625 19.6875 L 18.09375 20 C 17.99375 20.1 17.7875 20.1875 17.6875 20.1875 C 17.5875 20.1875 17.5125 20.2125 17.3125 20.3125 L 17.3125 18.09375 z" overflow="visible" enable-background="accumulate" font-family="Bitstream Vera Sans"/>
</svg>
